# xmcd CD database file
#
# Track frame offsets:
#	150
#	15360
#	34167
#	46499
#	66700
#	81644
#	96682
#	116562
#	135983
#	147929
#	161739
#	169680
#	188456
#
# Disc length: 2989 seconds
#
# Revision: 1
# Processed by: cddbd v1.5.2PL0 Copyright (c) Steve Scherf et al.
# Submitted via: CDex 1.70beta2
#
DISCID=b70bab0d
DTITLE=Preservation Hall Jazz Band - That's It!
DYEAR=2013
DGENRE=Jazz
TTITLE0=That's It!
TTITLE1=Dear Lord (Give Me The Strength)
TTITLE2=Come With Me
TTITLE3=Sugar Plum
TTITLE4=Rattlin' Bones
TTITLE5=I Think I Love You
TTITLE6=August Nights
TTITLE7=Halfway Right, Halfway Wrong
TTITLE8=Yellow Moon
TTITLE9=The Darker It Gets
TTITLE10=Emmalena's Lullaby
TTITLE11=Tootie Ma Is A Big Fine Thing
TTITLE12=Oh Liza
EXTD=YEAR: 2013
EXTT0=
EXTT1=
EXTT2=
EXTT3=
EXTT4=
EXTT5=
EXTT6=
EXTT7=
EXTT8=
EXTT9=
EXTT10=
EXTT11=
EXTT12=
PLAYORDER=
